<?xml version="1.0" encoding="UTF-8" standalone="no"?>
<!-- Created with Inkscape (http://www.inkscape.org/) -->

<svg
   xmlns:dc="http://purl.org/dc/elements/1.1/"
   xmlns:cc="http://creativecommons.org/ns#"
   xmlns:rdf="http://www.w3.org/1999/02/22-rdf-syntax-ns#"
   xmlns:svg="http://www.w3.org/2000/svg"
   xmlns="http://www.w3.org/2000/svg"
   xmlns:sodipodi="http://sodipodi.sourceforge.net/DTD/sodipodi-0.dtd"
   xmlns:inkscape="http://www.inkscape.org/namespaces/inkscape"
   width="384"
   height="384"
   viewBox="0 0 101.6 101.6"
   version="1.1"
   id="svg8"
   inkscape:version="0.92+devel unknown"
   sodipodi:docname="FeedbackerLogo.svg"
   inkscape:export-filename="/home/andrew/vcs/scala/feedbacker/public/images/FeedbackerLogo.png"
   inkscape:export-xdpi="96"
   inkscape:export-ydpi="96">
  <defs
     id="defs2" />
  <sodipodi:namedview
     id="base"
     pagecolor="#ffffff"
     bordercolor="#666666"
     borderopacity="1.0"
     inkscape:pageopacity="0.0"
     inkscape:pageshadow="2"
     inkscape:zoom="2"
     inkscape:cx="212.01714"
     inkscape:cy="217.01596"
     inkscape:document-units="mm"
     inkscape:current-layer="layer6"
     inkscape:document-rotation="0"
     showgrid="false"
     inkscape:window-width="1280"
     inkscape:window-height="678"
     inkscape:window-x="0"
     inkscape:window-y="13"
     inkscape:window-maximized="1"
     inkscape:snap-global="false"
     units="px" />
  <metadata
     id="metadata5">
    <rdf:RDF>
      <cc:Work
         rdf:about="">
        <dc:format>image/svg+xml</dc:format>
        <dc:type
           rdf:resource="http://purl.org/dc/dcmitype/StillImage" />
        <dc:title></dc:title>
      </cc:Work>
    </rdf:RDF>
  </metadata>
  <g
     inkscape:groupmode="layer"
     id="layer4"
     inkscape:label="Circle"
     style="display:inline"
     transform="translate(0,-195.39998)" />
  <g
     inkscape:groupmode="layer"
     id="layer5"
     inkscape:label="Helmet"
     style="display:inline"
     transform="translate(0,-195.39998)" />
  <g
     inkscape:groupmode="layer"
     id="layer6"
     inkscape:label="Grill"
     style="display:inline"
     transform="translate(0,-195.39998)">
    <ellipse
       style="display:inline;opacity:1;fill:#f5b83b;fill-opacity:1;stroke:none;stroke-width:1.64293778;stroke-linecap:round;stroke-linejoin:round;stroke-miterlimit:4;stroke-dasharray:none;stroke-opacity:1"
       id="path5821"
       cx="51.194962"
       cy="246.46587"
       rx="50.329609"
       ry="50.496494" />
    <path
       style="display:inline;opacity:1;fill:#f45552;fill-opacity:1;stroke:none;stroke-width:0.74095446;stroke-linecap:round;stroke-linejoin:round;stroke-miterlimit:4;stroke-dasharray:none;stroke-opacity:1"
       d="m 46.404308,224.016 c -13.225458,-8e-5 -23.94692,10.75674 -23.947026,24.02605 -1.08e-4,13.26946 12.81299,28.51575 30.370048,21.22447 5.910158,-2.45443 3.038257,-4.66261 2.742341,-8.46335 -0.295921,-3.80074 -9.071649,-4.30507 -7.871984,-11.66859 1.21028,-7.42864 0.486253,-7.98777 9.19888,-7.35163 3.605133,0.2632 7.16815,-0.16638 11.913598,0.12317 C 64.959103,228.67814 55.989092,224.27458 46.404308,224.016 Z"
       id="path5851"
       inkscape:connector-curvature="0"
       sodipodi:nodetypes="cssssscc" />
    <path
       sodipodi:nodetypes="ccsssscc"
       inkscape:connector-curvature="0"
       id="path4288"
       d="m 46.404308,224.016 -23.947026,24.02606 c -1.08e-4,13.26946 12.81299,28.51574 30.37005,21.22448 5.910154,-2.45444 3.038252,-4.66262 2.742339,-8.46337 -0.295923,-3.80073 -9.07165,-4.30507 -7.871984,-11.66857 1.210279,-7.42864 0.486254,-7.98779 9.198879,-7.35165 3.605136,0.26321 7.168153,-0.16636 11.913603,0.12317 C 64.959103,228.67814 55.989088,224.27459 46.404308,224.016 Z"
       style="display:inline;opacity:1;fill:#d40000;fill-opacity:1;stroke:none;stroke-width:0.74095446;stroke-linecap:round;stroke-linejoin:round;stroke-miterlimit:4;stroke-dasharray:none;stroke-opacity:1" />
    <path
       style="display:inline;opacity:1;fill:none;fill-opacity:1;stroke:none;stroke-width:0.74095446;stroke-linecap:round;stroke-linejoin:round;stroke-miterlimit:4;stroke-dasharray:none;stroke-opacity:1"
       d="m 46.404308,224.016 c -13.225458,-7e-5 -23.94692,10.75674 -23.947026,24.02606 -1.08e-4,13.26946 12.81299,28.51574 30.37005,21.22448 5.910154,-2.45444 3.038252,-4.66262 2.742339,-8.46337 -0.295923,-3.80073 -9.07165,-4.30507 -7.871984,-11.66857 1.210279,-7.42864 0.486254,-7.98779 9.198879,-7.35165 3.605136,0.26321 7.168153,-0.16636 11.913603,0.12317 C 64.959103,228.67814 55.989088,224.27459 46.404308,224.016 Z"
       id="path5851-7"
       inkscape:connector-curvature="0"
       sodipodi:nodetypes="cssssscc" />
    <path
       inkscape:connector-curvature="0"
       id="path5757"
       d="m 62.972604,270.54645 c -1.023473,-0.10865 -1.164769,-0.36138 -2.456506,-4.39281 -0.2307,-0.72 -0.608125,-1.45639 -0.838713,-1.6364 -0.303954,-0.23726 -1.876789,-0.32727 -5.719059,-0.32727 h -5.299804 v -0.9164 -0.91638 h 4.675939 c 2.571763,0 4.86169,-0.0716 5.088722,-0.15893 0.512077,-0.19715 0.529674,-1.12254 0.0429,-2.25408 -0.203447,-0.47289 -0.569487,-1.54627 -0.813435,-2.38529 -0.243939,-0.839 -0.594298,-1.58351 -0.778573,-1.65447 -0.184274,-0.071 -1.021912,0.0123 -1.861409,0.18527 -3.370524,0.69395 -3.053506,0.77843 -6.356706,-1.6937 -1.804119,-1.35022 -3.206342,-2.21917 -3.520374,-2.18157 -0.481928,0.0577 -0.527555,0.28607 -0.595447,2.98034 l -0.07353,2.91787 -0.90507,0.10598 -0.905071,0.10598 v -6.05932 c 0,-5.38215 0.05846,-6.22983 0.523136,-7.58489 0.767336,-2.23771 1.613315,-3.53942 3.346597,-5.14946 2.850085,-2.64743 5.226597,-3.08 15.562283,-2.83266 l 5.470659,0.13091 0.400941,0.7266 c 0.355765,0.64472 0.356837,0.75488 0.0094,0.97782 -0.223428,0.14341 -3.261939,0.25296 -7.079207,0.25525 -7.527823,0.005 -7.671915,0.0385 -6.950043,1.63871 0.21154,0.46895 1.1941,3.30618 2.183458,6.30498 0.989358,2.99879 1.994864,5.66409 2.234463,5.92291 0.417519,0.451 0.732088,0.39597 7.567835,-1.32373 6.158902,-1.54942 7.248914,-1.75612 7.98738,-1.51469 1.235783,0.40405 4.628729,3.80766 5.289317,5.30596 1.187272,2.69291 1.109924,6.00717 -0.242652,10.39898 -1.161853,3.77251 -1.591835,4.70131 -2.301849,4.97213 -0.59711,0.22778 -11.636257,0.26996 -13.68566,0.0523 z m 13.048177,-2.36364 c 0.6803,-1.29456 1.07663,-2.99074 0.81391,-3.48327 -0.25875,-0.48508 -0.602221,-0.50957 -7.146116,-0.50957 -8.027688,0 -7.856455,-0.0527 -7.07584,2.17658 0.876134,2.50205 0.170322,2.27443 7.053063,2.27443 5.557348,0 6.136128,-0.0417 6.354983,-0.45817 z m 1.751273,-6.2723 c 0.378399,-0.37966 0.423693,-0.80853 0.301837,-2.85779 -0.129296,-2.17449 -0.231327,-2.54904 -1.039814,-3.81709 -0.971731,-1.5241 -2.199518,-2.6829 -3.446428,-3.25278 -0.729461,-0.33339 -1.30017,-0.23346 -7.410302,1.29774 -4.452939,1.11591 -6.69551,1.79438 -6.850719,2.07265 -0.154574,0.27713 0.02782,1.14867 0.552659,2.64054 0.43087,1.2248 0.783396,2.39717 0.783396,2.60527 0,0.20812 0.243386,0.68883 0.540859,1.06826 l 0.54086,0.68988 h 7.791218 c 6.995819,0 7.836668,-0.0457 8.236434,-0.44668 z m -23.176688,-7.80154 c 1.098734,-0.34814 1.370067,-0.5466 1.370162,-1.00216 7.3e-5,-0.31244 -0.960958,-3.49159 -2.135612,-7.06479 -1.453554,-4.42152 -2.284653,-6.57664 -2.601923,-6.747 -0.635198,-0.3411 -2.485245,0.55028 -3.745431,1.80457 -1.934087,1.92502 -3.535046,5.8217 -2.988657,7.27425 0.225562,0.59964 2.244291,2.31785 5.354796,4.55765 2.0655,1.4873 2.668218,1.81344 3.115666,1.68595 0.14353,-0.0409 0.877473,-0.26973 1.630999,-0.50847 z"
       style="display:inline;fill:#3c3c3b;stroke-width:0.26139227"
       sodipodi:nodetypes="cscscccscccccccccccscsccccccscsccccccccscscccccsccsccscccccccccc" />
    <path
       inkscape:connector-curvature="0"
       id="path5759"
       d="m 61.872871,270.14646 c -0.202183,-0.32402 -0.690293,-1.59058 -1.084694,-2.81463 -0.394401,-1.22403 -0.835723,-2.37581 -0.980725,-2.5595 -0.207057,-0.26234 -1.46152,-0.29562 -5.846418,-0.15513 l -5.582786,0.17889 0.161895,-1.15401 c 0.08905,-0.63471 0.209025,-1.30622 0.266628,-1.49227 0.08251,-0.26651 1.128612,-0.31162 4.9311,-0.21263 2.953465,0.077 4.886605,0.0278 4.981603,-0.12639 0.217087,-0.35243 -1.426619,-5.27869 -1.883477,-5.64488 -0.397353,-0.31846 -2.264872,0.0403 -3.409833,0.65515 -1.126733,0.605 -1.806944,0.33109 -4.782792,-1.92593 -1.613876,-1.22403 -3.092709,-2.2255 -3.286303,-2.2255 -0.27299,0 -0.351983,0.61697 -0.351983,2.74915 v 2.74917 l -0.848119,0.004 c -0.466467,0.002 -1.112342,0.0746 -1.43528,0.16144 l -0.58716,0.15788 0.0031,-5.85615 c 0.002,-4.14393 0.10853,-6.25348 0.3637,-7.21507 1.13029,-4.25945 4.272217,-7.62415 8.1144,-8.68978 0.722961,-0.20051 3.515297,-0.23677 9.083593,-0.11797 l 8.039759,0.17153 0.395081,0.76653 c 0.767559,1.48922 0.765473,1.48969 -6.874485,1.56592 l -6.990514,0.0698 0.08084,1.04731 c 0.105476,1.36622 3.64148,12.05948 4.119374,12.45741 0.28734,0.23926 1.877003,-0.0727 7.279068,-1.42825 3.801289,-0.9539 7.194951,-1.73437 7.541454,-1.73437 0.881307,0 3.647177,2.15822 4.900728,3.82404 1.992023,2.64717 2.498757,5.91624 1.537961,9.9218 -0.565332,2.35687 -2.019139,6.63678 -2.42355,7.13473 -0.201294,0.24787 -2.061403,0.32729 -7.665183,0.32729 -7.390544,0 -7.399827,-7.4e-4 -7.766992,-0.58911 z m 13.633687,-1.75077 c 0.551062,-0.29588 1.485472,-2.91271 1.255121,-3.51498 -0.146385,-0.38276 -0.923884,-0.42895 -7.218165,-0.42895 h -7.054108 l 0.0037,0.58911 c 0.0044,0.70149 0.707063,2.80481 1.092476,3.27074 0.330555,0.39963 11.190599,0.47623 11.920883,0.084 z m 2.280178,-6.6128 c 0.105863,-0.17185 0.199779,-1.20278 0.208714,-2.29097 0.01361,-1.65474 -0.102952,-2.22288 -0.712128,-3.47162 -0.781746,-1.60251 -2.934188,-3.76929 -4.014599,-4.04137 -0.388831,-0.0979 -3.013338,0.4225 -6.688238,1.32621 -6.847626,1.68394 -7.222603,1.80836 -7.222603,2.3967 0,0.38498 1.107885,3.88159 1.797615,5.67347 l 0.277147,0.72003 h 8.080815 c 5.97849,0 8.130894,-0.0812 8.273277,-0.31245 z m -23.538644,-7.62454 c 0.706042,-0.18367 1.397607,-0.51509 1.536796,-0.73649 0.182164,-0.28973 -0.205305,-1.79046 -1.382778,-5.35571 -0.899717,-2.72423 -1.899319,-5.54226 -2.221338,-6.26227 -0.322027,-0.72003 -0.655415,-1.51532 -0.740884,-1.76733 -0.222643,-0.65653 -0.942311,-0.56706 -2.27872,0.28327 -2.304563,1.46635 -4.155502,4.58461 -4.155875,7.00135 -2.04e-4,1.30917 0.02463,1.35018 1.74476,2.88009 2.45251,2.18127 5.317437,4.30207 5.803489,4.29609 0.225951,-0.002 0.988502,-0.15533 1.69455,-0.339 z"
       style="display:inline;fill:#503936;stroke-width:0.26139227"
       sodipodi:nodetypes="cccscscssscssscccccscscccccccscccsccccscccccccccssccscccsccccccc" />
    <path
       inkscape:connector-curvature="0"
       id="path5761"
       d="m 61.733587,270.76276 c -0.272174,-0.27307 -0.873367,-1.68692 -1.335979,-3.1419 -0.462612,-1.45497 -0.973875,-2.66647 -1.136142,-2.69224 -0.16226,-0.0258 -2.754899,-0.0552 -5.761417,-0.0654 l -5.466389,-0.0186 0.07421,-1.43868 c 0.04082,-0.79129 0.205799,-1.52029 0.366632,-1.62002 0.160834,-0.0997 2.319918,-0.15033 4.797959,-0.1124 2.478055,0.0379 4.627168,-0.007 4.775816,-0.0988 0.272191,-0.16878 -1.030168,-4.54985 -1.489533,-5.01074 -0.122779,-0.12319 -1.036575,0.0102 -2.038123,0.29762 -0.998554,0.28651 -2.064517,0.52092 -2.368805,0.52092 -0.304288,0 -1.824822,-0.94257 -3.378972,-2.0946 -1.554155,-1.15202 -2.974864,-2.09459 -3.157137,-2.09459 -0.241508,0 -0.351579,0.72797 -0.405775,2.68371 l -0.07436,2.6837 h -1.56576 -1.565759 l -0.07055,-5.60673 c -0.07715,-6.13039 0.09776,-7.6609 1.124343,-9.83808 1.504391,-3.19057 3.989164,-5.50557 6.896582,-6.42534 1.546165,-0.48912 2.346886,-0.53296 9.571361,-0.52391 4.336218,0.005 8.057941,0.0768 8.270496,0.15866 0.505198,0.1945 1.022225,1.46753 0.912321,2.24635 l -0.08664,0.61397 -6.912066,0.13092 c -6.223022,0.11785 -6.920528,0.17508 -6.996905,0.57393 -0.128247,0.66977 3.849357,12.51635 4.205028,12.5239 0.170166,0.004 3.508785,-0.78937 7.419156,-1.76216 l 7.10978,-1.76871 0.979986,0.51358 c 1.445046,0.75734 4.5783,3.99923 5.272468,5.45528 0.332035,0.69649 0.724324,2.11034 0.871739,3.14191 0.229035,1.60279 0.186118,2.28288 -0.295131,4.67635 -0.689,3.42671 -2.013774,7.18765 -2.814953,7.9915 -0.59125,0.5932 -0.64295,0.59709 -7.913879,0.59709 -6.837389,0 -7.351287,-0.0328 -7.813596,-0.49649 z m 14.02664,-3.53024 c 0.197988,-0.41465 0.375633,-1.12158 0.39477,-1.57096 l 0.03477,-0.81701 -6.465195,-0.0701 c -7.208711,-0.0782 -7.027048,-0.12592 -6.442107,1.69565 0.554322,1.72621 0.300314,1.66403 6.481306,1.58676 l 5.636454,-0.0705 z m 1.485902,-5.84163 c 0.611851,-0.61389 0.409912,-3.73055 -0.336068,-5.18658 -0.611009,-1.19257 -2.136309,-2.84773 -3.251257,-3.52802 -0.744181,-0.45405 -0.848869,-0.43725 -7.184048,1.15277 -3.535883,0.88745 -6.475973,1.75531 -6.533547,1.9286 -0.119321,0.35913 1.439743,5.25086 1.832162,5.74862 0.195532,0.24801 2.046957,0.32727 7.644788,0.32727 6.58836,0 7.434447,-0.0478 7.82797,-0.44266 z m -22.962041,-7.70501 c 0.637668,-0.16109 1.159274,-0.42619 1.159118,-0.5891 -1.56e-4,-0.1629 -0.769444,-2.59372 -1.709529,-5.40179 -0.940084,-2.80808 -1.885783,-5.67139 -2.101555,-6.36293 -0.461377,-1.47871 -0.810809,-1.67964 -1.920077,-1.10411 -2.260914,1.17305 -4.445998,4.65505 -4.445998,7.08485 v 1.36696 l 3.457719,2.64673 c 1.901748,1.4557 3.669936,2.64799 3.929322,2.64952 0.259379,0.001 0.993331,-0.12901 1.631,-0.29013 z"
       style="display:inline;fill:#5c4f35;stroke-width:0.26139227"
       sodipodi:nodetypes="cscccccccccscsscccscsccscsccsccccscsccccccccccccccccscsssccscscs" />
    <ellipse
       style="display:inline;opacity:0.78600003;fill:#c9c9c9;fill-opacity:1;stroke:#1a0000;stroke-width:0.74095446;stroke-miterlimit:4;stroke-dasharray:none;stroke-opacity:1"
       id="path5811"
       cx="43.953972"
       cy="262.72794"
       rx="4.2716208"
       ry="4.2857847" />
    <path
       style="display:inline;opacity:0.78600003;fill:#c9c9c9;fill-opacity:1;stroke:#1a0000;stroke-width:0.74095446;stroke-linecap:round;stroke-linejoin:round;stroke-miterlimit:4;stroke-dasharray:none;stroke-opacity:1"
       d="m 56.617806,232.64005 7.74105,0.0707 1.95566,3.44748 -9.69671,-0.14236 z"
       id="rect5814"
       inkscape:connector-curvature="0"
       sodipodi:nodetypes="ccccc" />
  </g>
</svg>
